<svg id="Layer_1" data-name="Layer 1" xmlns="http://www.w3.org/2000/svg" xmlns:xlink="http://www.w3.org/1999/xlink" width="34" height="480" viewBox="0 0 34 480"><defs><style>.cls-1{fill:#c91515;}.cls-1,.cls-2,.cls-8{fill-rule:evenodd;}.cls-2{fill:#c91515;}.cls-11,.cls-3,.cls-4,.cls-7,.cls-9{fill:none;stroke:#a3a3a3;}.cls-11,.cls-4,.cls-9{stroke-linejoin:round;}.cls-5{mask:url(#mask);}.cls-6,.cls-8{fill:#c91515;}.cls-7,.cls-9{stroke-linecap:round;}.cls-10{mask:url(#mask-2);}.cls-11{stroke-linecap:square;}.cls-12{mask:url(#mask-3);}</style><mask id="mask" x="6.3" y="69.13" width="27.21" height="17" maskUnits="userSpaceOnUse"><g id="path-1-inside-1"><path class="cls-1" d="M30.68,79.86c1-2.09,2-4.8,1.81-6.73H14l-2.17-3H7.3v4H9.8l3.72,5.4a3.33,3.33,0,1,0,5.76,2.6h5.37a3.33,3.33,0,0,0,6.65-.34A3.29,3.29,0,0,0,30.68,79.86Z"/></g></mask><mask id="mask-2" x="15.97" y="362.36" width="17.02" height="25" maskUnits="userSpaceOnUse"><g id="mask0"><path class="cls-2" d="M22,362.36H16v25H33v-25H27v8H22Z"/></g></mask><mask id="mask-3" x="1.32" y="449" width="32.79" height="32" maskUnits="userSpaceOnUse"><g id="path-1-inside-1-2" data-name="path-1-inside-1"><path class="cls-1" d="M9.38,462.27h0A9.61,9.61,0,0,0,15,464.06s-3.16-6.4-.34-9.22a1.76,1.76,0,0,0-2,.38A5,5,0,0,1,16,453a3.31,3.31,0,0,0-3.88.51c1.67-5.33,15.62-4.87,13.78,3.2a2.06,2.06,0,0,0,2.18-.94s.55,1.83-2.48,2.3c0,0-1.53,3.25-2.3.17-3.07-4.6-7.68-.12-3.88,6.4A14.5,14.5,0,0,0,27,461.92a11.5,11.5,0,0,0,3.21-4.37s7.59,9.81-2,20.6a14.75,14.75,0,0,0,.44-7.37c-.56,1.42-1.76,3.83-3.67,4.62,0,0,2-7.93-4.1-6.18,4.78,8.57-7.93,13.65-12.62,9,0,0,9.3-.34,9.08-7.42,0,0-7.93-6.06-6.57,4.26,0,0-2.22,0-3.48-5.06-.43.34-1.66,1.81-.37,6.86,0,0-9.43-8.15-1.49-19.41A12.36,12.36,0,0,0,9.38,462.27Z"/></g></mask></defs><title>ic_sprite</title><path class="cls-3" d="M32.35,17.18a9.71,9.71,0,0,1-.64,3.28,7.17,7.17,0,0,1-1.77,2.81,9,9,0,0,1-11.74,0,7.28,7.28,0,0,1-1.77-2.81,9.93,9.93,0,0,1-.63-3.28A19.37,19.37,0,0,1,18,9.05c1.47-2.78,3.54-4.83,6.06-4.83s4.6,2.05,6.06,4.83A19.25,19.25,0,0,1,32.35,17.18Z"/><path class="cls-4" d="M18.18,9.57c-2.4-1.91-2.88-5.85-2.88-5.85A30,30,0,0,0,20,6.38"/><path class="cls-4" d="M30,9.57c2.4-1.91,2.88-5.85,2.88-5.85a30,30,0,0,1-4.68,2.66"/><path class="cls-3" d="M19.41,32.7,19,32.47l-.27.36L14.89,38l-.26.35.3.31,1.48,1.48-.33.44L6,53.88l-.3.4.4.3,2.56,1.94.4.31.3-.4L19.21,43.5l.25-.34.59.59,3.83,6.39.2.32.35-.09a11.6,11.6,0,0,0,6.06-3.21,9.08,9.08,0,0,0,2.06-6.3v-.28l-.24-.15Z"/><line class="cls-3" x1="16.41" y1="40.12" x2="19.46" y2="43.16"/><g class="cls-5"><path class="cls-6" d="M32.49,73.13l1-.09-.07-.91h-.92Zm-1.81,6.73-.9-.45-.27.54.35.49ZM14,73.13l-.82.58.3.42H14Zm-2.17-3,.81-.59-.3-.41H11.8Zm-4.5,0v-1h-1v1Zm0,4h-1v1h1Zm2.5,0,.82-.57-.3-.43H9.8Zm3.72,5.4.73.68.54-.59L14.34,79Zm5.76,2.6v-1h-.9l-.09.9Zm5.37,0,1-.1-.09-.9h-.9Zm6.84-8.92a8.49,8.49,0,0,1-.42,3,19.64,19.64,0,0,1-1.29,3.25l1.79.89A21.67,21.67,0,0,0,33,76.71,10.58,10.58,0,0,0,33.48,73ZM14,74.13H32.49v-2H14Zm-3-3.42,2.16,3,1.63-1.17-2.17-3Zm-3.69.42h4.5v-2H7.3Zm1,3v-4h-2v4Zm1.5-1H7.3v2H9.8ZM14.34,79l-3.72-5.41L9,74.69l3.72,5.41Zm-1.56-.12a4.36,4.36,0,0,0-1.15,2.94h2a2.35,2.35,0,0,1,.62-1.58Zm-1.15,2.94A4.34,4.34,0,0,0,16,86.13v-2a2.34,2.34,0,0,1-2.34-2.34ZM16,86.13a4.34,4.34,0,0,0,4.31-3.91l-2-.19A2.34,2.34,0,0,1,16,84.13Zm8.68-5H19.28v2h5.37Zm-1,1.09A4.34,4.34,0,0,0,28,86.13v-2A2.34,2.34,0,0,1,25.64,82ZM28,86.13a4.33,4.33,0,0,0,4.33-4.34h-2A2.34,2.34,0,0,1,28,84.13Zm4.33-4.34a4.3,4.3,0,0,0-.81-2.52l-1.63,1.17a2.27,2.27,0,0,1,.44,1.35Z"/></g><path class="cls-3" d="M22.49,73.62v-10a9.42,9.42,0,0,1,6.35,3,9.51,9.51,0,0,1,3.17,7Z"/><path style="stroke: #1eec8ce5;" class="cls-3" d="M20.44,100.36l.06-.11V97.63h-1v-2.5a.5.5,0,0,1,.5-.5h7a.5.5,0,0,1,.5.5v2.5h-1v2.62l.06.11A24.86,24.86,0,0,0,28.31,103l.36.49c.54.74,1.09,1.49,1.6,2.28a11.58,11.58,0,0,1,2.23,6.33,4.67,4.67,0,0,1-.64,2.48,2,2,0,0,1-1.76,1H17a2.12,2.12,0,0,1-1.83-1,4.49,4.49,0,0,1-.67-2.47,11.22,11.22,0,0,1,2.2-6.23c.46-.71,1-1.39,1.46-2.08l.5-.68A23.26,23.26,0,0,0,20.44,100.36Z"/><circle style="stroke: #1eec8ce5;" class="cls-3" cx="20" cy="111.13" r="1.5"/><circle class="cls-3" cx="25" cy="107.13" r="0.5"/><path class="cls-7" d="M17.59,144.72v-3c0-4.72,15-8.5,15-14v-3"/><path class="cls-7" d="M32.59,144.72v-3c0-2-3-3.79-5.81-5.63m-9.19-11.37v3c0,2.22,2.78,4.16,5.5,6"/><line class="cls-7" x1="20.59" y1="127.72" x2="29.59" y2="127.72"/><line style="stroke: #1eec8ce5;" class="cls-7" x1="20.59" y1="142.72" x2="29.59" y2="142.72"/><line class="cls-7" x1="22.59" y1="139.72" x2="27.59" y2="139.72"/><line class="cls-7" x1="22.59" y1="130.72" x2="27.59" y2="130.72"/><path class="cls-3" d="M29.58,173.2h.32V157.07h-11V173.2H29.58Zm-11-20H30.23a1.94,1.94,0,0,1,1.3.41,1.53,1.53,0,0,1,.47,1.2v20.64a1.57,1.57,0,0,1-.57,1.21,1.16,1.16,0,0,1-.52.33,2.14,2.14,0,0,1-.68.08H18.61a2.14,2.14,0,0,1-.68-.08,1.11,1.11,0,0,1-.52-.33,1.16,1.16,0,0,1-.33-.52,2.21,2.21,0,0,1-.08-.69V154.81a1.42,1.42,0,0,1,1.61-1.61Z"/><path class="cls-3" d="M22,184.63a5,5,0,1,1-3.54,1.46A5,5,0,0,1,22,184.63Zm0,13.75a17.43,17.43,0,0,1,7.56,1.55c1.93,1,2.94,2.22,2.94,3.45v2.25h-21v-2.25c0-1.23,1-2.48,2.94-3.45A17.43,17.43,0,0,1,22,198.38Z"/><path class="cls-8" d="M27.68,223.68l-.68.23v12.22H24v-3H19v-2h5v-7.22l-.68-.23c-2-.67-3.24-2.87-3.24-5.3a5.12,5.12,0,0,1,1.58-3.7,5.62,5.62,0,0,1,7.75,0,5.12,5.12,0,0,1,1.59,3.7A5.47,5.47,0,0,1,27.68,223.68ZM28,237.13v-12.5c2.51-.85,4-3.54,4-6.25A6.15,6.15,0,0,0,30.11,214,6.62,6.62,0,0,0,21,214a6.15,6.15,0,0,0-1.89,4.42c0,2.71,1.41,5.4,3.92,6.25v5.5H18v4h5v3h5Zm-4-18.5a1.5,1.5,0,0,1,.44-1.06,1.5,1.5,0,0,1,2.12,0,1.5,1.5,0,0,1,.44,1.06,1.52,1.52,0,0,1-.44,1.06,1.5,1.5,0,0,1-2.12,0A1.52,1.52,0,0,1,24,218.63Zm-.27-1.77a2.5,2.5,0,0,0,0,3.53,2.49,2.49,0,0,0,3.54,0,2.5,2.5,0,0,0-3.54-3.53Z"/><path class="cls-3" d="M24.5,264a1.57,1.57,0,0,1-2.63,1.09A1.52,1.52,0,0,1,21.5,264Z"/><path class="cls-3" d="M15.54,259.78l.15-.14v-6.78A7.15,7.15,0,0,1,20.81,246l.36-.11v-.37h0a1.65,1.65,0,0,1,.49-1.19,1.7,1.7,0,0,1,1.2-.5,1.71,1.71,0,0,1,1.69,1.69h0v.37l.36.11A7.14,7.14,0,0,1,30,252.86v6.78l.15.14,2,2.05v.67H13.5v-.67Z"/><circle class="cls-3" cx="22" cy="285.13" r="10.5"/><path class="cls-7" d="M21.5,279.13v6l5.5,5"/><path class="cls-4" d="M7.84,306.53a.49.49,0,0,0-.34.47v19a.52.52,0,0,0,.21.41.48.48,0,0,0,.45.06l9-3a.49.49,0,0,0,.34-.47V304a.52.52,0,0,0-.21-.41.48.48,0,0,0-.45-.06Z"/><path class="cls-4" d="M22.84,306.53a.49.49,0,0,0-.34.47v19a.52.52,0,0,0,.21.41.48.48,0,0,0,.45.06l9-3a.49.49,0,0,0,.34-.47V304a.52.52,0,0,0-.21-.41.48.48,0,0,0-.45-.06Z"/><line class="cls-3" x1="17.26" y1="303.57" x2="22.26" y2="306.57"/><path class="cls-3" d="M17.5,323.5l5.5,3"/><circle class="cls-4" cx="24.52" cy="341.48" r="7.98"/><circle class="cls-4" cx="21.07" cy="344.93" r="7.97"/><path class="cls-9" d="M24.11,352.35a7.48,7.48,0,1,1-10.61-9.78"/><g class="cls-10"><path class="cls-3" d="M16.5,365.12a1.5,1.5,0,0,1,1.5-1.49H31a1.5,1.5,0,0,1,1.5,1.5l0,20a1.5,1.5,0,0,1-1.5,1.5H18a1.51,1.51,0,0,1-1.5-1.51Z"/><path class="cls-3" d="M18.47,367.63h12v15h-12Z"/></g><line class="cls-3" x1="24.47" y1="362.36" x2="24.47" y2="375.36"/><path class="cls-3" d="M21,372.13l3.5,3.5,3.5-3.5"/><path class="cls-11" d="M21.82,402.44a.51.51,0,0,0-.3.46v13.2a.51.51,0,0,0,.72.45l9.9-4.84a.48.48,0,0,0,.28-.45V398.5a.5.5,0,0,0-.22-.42.51.51,0,0,0-.48,0Z"/><path class="cls-11" d="M21.13,402.44a.5.5,0,0,1,.29.46v13.2a.48.48,0,0,1-.23.42.5.5,0,0,1-.49,0l-9.9-4.84a.5.5,0,0,1-.28-.45V398.5a.5.5,0,0,1,.23-.42.51.51,0,0,1,.48,0Z"/><path class="cls-9" d="M10.47,398l11-4.95,11,4.95"/><path class="cls-11" d="M24.29,437.4a7.19,7.19,0,0,0-1.17-1.17h0a19.65,19.65,0,0,1,6.57,1.31,8.93,8.93,0,0,1,2.72,1.6,2.7,2.7,0,0,1,1,2v3.5h-8v-3.5A5.9,5.9,0,0,0,24.29,437.4ZM.47,441.13c0-1.49,1.27-2.87,3.36-3.9a16.92,16.92,0,0,1,7.17-1.6,16.71,16.71,0,0,1,7.14,1.6c2.08,1,3.33,2.4,3.33,3.9v3.5H.47Z"/><path class="cls-11" d="M14.18,431.31a4.5,4.5,0,1,1,1.32-3.18A4.51,4.51,0,0,1,14.18,431.31Z"/><path class="cls-11" d="M25.33,430.45a4,4,0,1,1,1.17-2.82A4,4,0,0,1,25.33,430.45Z"/><g class="cls-12"><path class="cls-6" d="M9.37,462.27l-.72-.69-.81.84,1,.67Zm0,0,.72.69.8-.83-.94-.68Zm5.6,1.79v1h1.61l-.71-1.45Zm-.34-9.22.71.71.93-.93L15.13,454Zm-2,.38-.87-.48L13.31,456ZM16,453l.18,1,2.6-.46-2.26-1.38Zm-3.88.51-.95-.3-1.07,3.44,2.69-2.39Zm13.78,3.2-1-.22-.2.88.86.29Zm2.18-.94,1-.29-.56-1.86-1.18,1.54Zm-2.48,2.3-.15-1-.52.09-.23.47Zm-2.3.17,1-.24,0-.17-.1-.14Zm-3.88,6.4-.87.51.3.5h.59ZM27,461.92l.6.79h0l0,0Zm3.21-4.37.79-.61L30,455.58l-.67,1.58Zm-2,20.6-.93-.35,1.68,1Zm.44-7.37,1-.19-.65-3.37-1.26,3.19Zm-3.67,4.62-1-.24-.49,1.93,1.84-.76ZM21,469.22l-.27-1-1.21.34.61,1.1Zm-12.62,9,0-1L6,477.35,7.63,479Zm9.08-7.42,1,0v-.48L18,470Zm-6.57,4.26v1H12L11.83,475ZM7.36,470l1-.24L8,468.28l-1.22,1ZM7,476.9l-.66.76,2.42,2.08L8,476.65ZM5.5,457.49l.92-.38-.69-1.69-1.05,1.49ZM10.09,463h0l-1.44-1.39h0Zm4.89.09a8.52,8.52,0,0,1-5-1.61L8.8,463.09a10.58,10.58,0,0,0,6.18,2Zm-1.05-8.93a5.26,5.26,0,0,0-1.42,3.24,10.89,10.89,0,0,0,.27,3.35,19,19,0,0,0,.82,2.66c.13.33.25.61.34.8l.1.23,0,.06v0h0l.9-.44.9-.45h0l0,0-.09-.19c-.07-.17-.18-.42-.3-.72a16.33,16.33,0,0,1-.73-2.36,8.53,8.53,0,0,1-.23-2.72,3.13,3.13,0,0,1,.85-2ZM13.31,456a.86.86,0,0,1,.65-.28.66.66,0,0,1,.18,0l0,0h0l.49-.87.49-.87h0l-.07,0-.22-.09a3,3,0,0,0-.72-.14,2.87,2.87,0,0,0-2.12.81ZM15.83,452a6.13,6.13,0,0,0-3.08,1.52,5.94,5.94,0,0,0-.73.8l-.18.27-.06.09v0h0l.87.48.88.49h0l0,0,.1-.15a3.82,3.82,0,0,1,.47-.52,4.09,4.09,0,0,1,2.08-1Zm-3,2.25a2.28,2.28,0,0,1,1.88-.65,2.12,2.12,0,0,1,.63.16l.16.07,0,0h0A8.14,8.14,0,0,1,16,453l.52-.86h0l0,0-.1-.05a2.75,2.75,0,0,0-.33-.15,4.36,4.36,0,0,0-1.14-.29,4.32,4.32,0,0,0-3.44,1.14Zm14.09,2.67a5.75,5.75,0,0,0-1.41-5.57,8.57,8.57,0,0,0-5-2.27,11.74,11.74,0,0,0-5.58.6,5.83,5.83,0,0,0-3.71,3.52l1.91.6a3.89,3.89,0,0,1,2.51-2.25,9.64,9.64,0,0,1,4.6-.48A6.57,6.57,0,0,1,24,452.77a3.78,3.78,0,0,1,.89,3.73Zm.41-1.77a1.39,1.39,0,0,1-.85.59h-.22l-.32,1-.31.95h.05l.08,0a1.33,1.33,0,0,0,.26.05,3.08,3.08,0,0,0,.79,0,3.37,3.37,0,0,0,2.1-1.34Zm-1.53,3.9c1.72-.27,2.7-1,3.12-1.89a2.67,2.67,0,0,0,.24-1.13,2.78,2.78,0,0,0,0-.37,1,1,0,0,0,0-.12v-.06h0l-1,.29-1,.29h0a.35.35,0,0,1,0,.06.53.53,0,0,1-.05.23c-.05.12-.31.56-1.62.76Zm-3.43-.57a4.44,4.44,0,0,0,.42,1.12,1.85,1.85,0,0,0,.78.79,1.65,1.65,0,0,0,1.87-.34,4.83,4.83,0,0,0,.81-1c.09-.15.16-.28.21-.38l.06-.12,0,0h0l-.91-.43-.9-.43h0a.59.59,0,0,1,0,.08l-.15.27a2.44,2.44,0,0,1-.43.55c-.06.06-.06,0,0,0a.49.49,0,0,1,.37,0c.11.06.11.11,0,0a2.31,2.31,0,0,1-.22-.63Zm-2,5.65c-1.79-3.08-1.42-5.35-.71-6.26a1.18,1.18,0,0,1,1.14-.51,2.87,2.87,0,0,1,1.76,1.43l1.66-1.11A4.81,4.81,0,0,0,21,455.4a3.17,3.17,0,0,0-3,1.26c-1.41,1.81-1.44,5,.56,8.5Zm6.15-3a12.89,12.89,0,0,1-4.76,2.19,13.09,13.09,0,0,1-1.67.29l-.46,0H19.4l0,1,0,1h.22l.56-.05a14.61,14.61,0,0,0,1.92-.34,14.86,14.86,0,0,0,5.5-2.54Zm2.89-4a10.3,10.3,0,0,1-2.93,4l1.29,1.53a12.37,12.37,0,0,0,3.49-4.74ZM29,478.82c5-5.65,5.56-11.12,4.8-15.2a17.27,17.27,0,0,0-1.66-4.83,15.29,15.29,0,0,0-.78-1.35l-.25-.36-.07-.1,0,0h0l-.79.61-.8.61h0l.05.07.21.3a12.87,12.87,0,0,1,.67,1.17A15.44,15.44,0,0,1,31.86,464c.66,3.52.23,8.35-4.33,13.5ZM27.74,471a14.12,14.12,0,0,1,.07,4.88c-.1.62-.22,1.12-.31,1.46-.05.17-.09.3-.12.38a.46.46,0,0,1,0,.09v0h0l.93.35.94.36h0v0a1,1,0,0,0,0-.13c0-.11.09-.27.15-.47a15.68,15.68,0,0,0,.36-1.69,16.17,16.17,0,0,0-.09-5.57Zm-2.31,5.36a6.61,6.61,0,0,0,2.78-2.43,13.93,13.93,0,0,0,1.44-2.76l-1.86-.73a11.81,11.81,0,0,1-1.22,2.35,4.71,4.71,0,0,1-1.9,1.72Zm-4.2-6.15c1.36-.39,2-.17,2.34.07a2.31,2.31,0,0,1,.73,1.55,8.5,8.5,0,0,1,0,2.26c0,.33-.09.61-.13.81a1.49,1.49,0,0,1-.05.22v.06h0l1,.24,1,.25h0v-.1a2.57,2.57,0,0,0,.06-.28c0-.23.11-.56.16-.94a10.46,10.46,0,0,0,0-2.81,4.27,4.27,0,0,0-1.52-2.87,4.52,4.52,0,0,0-4.08-.38ZM7.63,479a7.72,7.72,0,0,0,5.3,2,11.63,11.63,0,0,0,5.75-1.44,8.41,8.41,0,0,0,3.91-4.32,7.65,7.65,0,0,0-.76-6.51l-1.75,1a5.68,5.68,0,0,1,.64,4.85,6.41,6.41,0,0,1-3,3.26A9.53,9.53,0,0,1,13,479,5.76,5.76,0,0,1,9,477.55Zm8.78-8.11a5,5,0,0,1-1.1,3.48,7,7,0,0,1-2.75,1.93,12.71,12.71,0,0,1-3,.83c-.4.07-.74.11-1,.13l-.26,0H8.29l0,1,0,1h.13l.33,0c.27,0,.66-.07,1.12-.15a15.61,15.61,0,0,0,3.4-.95,9.17,9.17,0,0,0,3.52-2.51,7,7,0,0,0,1.55-4.81ZM11.83,475c-.33-2.52-.05-3.78.31-4.36a1.23,1.23,0,0,1,1.35-.52,6.64,6.64,0,0,1,2.21.83,8,8,0,0,1,.81.51l.23.15.05,0h0l.6-.79L18,470h0l0,0-.08-.06-.27-.19c-.24-.16-.57-.37-1-.59a8.18,8.18,0,0,0-2.94-1.07,3.21,3.21,0,0,0-3.3,1.44c-.74,1.19-.94,3.05-.59,5.69Zm-5.44-4.7a9.44,9.44,0,0,0,2.52,5,3.71,3.71,0,0,0,1.24.75,2.55,2.55,0,0,0,.44.11l.15,0h.1v-2h.06l-.1,0a1.77,1.77,0,0,1-.56-.36c-.52-.45-1.31-1.52-1.9-3.92ZM8,476.65a11.47,11.47,0,0,1-.45-4.76A1.73,1.73,0,0,1,8,470.82l-1.25-1.57c-.88.71-2,2.69-.72,7.9ZM4.68,456.91C.5,462.84.86,468.06,2.34,471.79a16.89,16.89,0,0,0,2.52,4.29c.41.5.77.88,1,1.15l.31.31.09.08,0,0h0s0,0,.66-.75l.65-.76h0a.33.33,0,0,1-.06-.06,2.66,2.66,0,0,1-.26-.25,11.92,11.92,0,0,1-.89-1,14.35,14.35,0,0,1-2.22-3.77c-1.26-3.16-1.64-7.65,2.11-13ZM10,461.45a11,11,0,0,1-2.71-2.86,10.08,10.08,0,0,1-.64-1.09l-.15-.3a.2.2,0,0,1,0-.08h0l-.92.38-.93.38h0v0l0,.11c0,.09.1.22.19.38a11.24,11.24,0,0,0,.75,1.28,12.94,12.94,0,0,0,3.21,3.39Z"/></g></svg>